Coordinates
version=1
nRows=29
nColumns=24
inDegrees=yes

Units are S.I. units (second, meters, Newtons, ...)
Angles are in degrees.

endheader
time	pelvis_tilt	pelvis_list	pelvis_rotation	pelvis_tx	pelvis_ty	pelvis_tz	hip_flexion_r	hip_adduction_r	hip_rotation_r	knee_angle_r	ankle_angle_r	subtalar_angle_r	mtp_angle_r	hip_flexion_l	hip_adduction_l	hip_rotation_l	knee_angle_l	ankle_angle_l	subtalar_angle_l	mtp_angle_l	lumbar_extension	lumbar_bending	lumbar_rotation
      0.96883333	      1.06571503	     -5.18650481	      1.99100675	     -0.29395092	      1.00423416	      0.30286689	      4.75041016	     11.42063627	      0.38171013	    -12.24253790	      4.74390282	    -16.98913023	     -2.05770581	     19.19180899	     -5.65460003	      1.24743095	    -72.96698230	     -8.26153960	    -10.69145313	      3.70707443	      0.27692618	      8.43539693	      2.55544167
      0.97300000	      1.12806874	     -5.11656597	      1.83262618	     -0.28923302	      1.00462768	      0.30324204	      4.18662096	     11.37021082	      0.53186788	    -11.90671999	      4.78254418	    -16.86867054	     -2.05393791	     19.75061189	     -5.60076036	      1.16393018	    -72.88056096	     -7.63656057	    -10.81847171	      3.59734331	      0.11651312	      8.35915709	      2.66349997
      0.97716667	      1.18205475	     -5.01508323	      1.64893920	     -0.28452366	      1.00500168	      0.30362156	      3.65369893	     11.27431288	      0.64404212	    -11.61972713	      4.87286804	    -16.63064110	     -2.04425359	     20.29418544	     -5.51607901	      1.04923167	    -72.73390049	     -7.05461937	    -10.96082616	      3.46121535	     -0.01995311	      8.23852835	      2.91311181
      0.98133333	      1.17441013	     -4.91520953	      1.45949299	     -0.27985373	      1.00525806	      0.30398364	      3.20965858	     11.17204427	      0.74945901	    -11.37141084	      4.96899169	    -16.34936627	     -2.03032943	     20.89953806	     -5.42716814	      0.94140550	    -72.55015309	     -6.45585229	    -11.06336594	      3.34330187	     -0.10245182	      8.12656700	      3.13035122
      0.98550000	      1.19152757	     -4.81467536	      1.25939203	     -0.27517493	      1.00551571	      0.30436094	      2.74276860	     11.06543316	      0.83445272	    -11.12955009	      5.06030194	    -16.07473571	     -2.01539246	     21.46154322	     -5.34638277	      0.81843252	    -72.32610855	     -5.85940014	    -11.15021234	      3.25836626	     -0.19864363	      8.00084173	      3.30971664
      0.98966667	      1.20704355	     -4.72320401	      1.09133584	     -0.27049050	      1.00574424	      0.30466682	      2.27498478	     10.95917067	      0.87986792	    -10.87342635	      5.18217972	    -15.69459151	     -1.98834086	     22.01828326	     -5.25552988	      0.74750939	    -72.05662406	     -5.27393483	    -11.12594224	      3.12655676	     -0.29620966	      7.90493607	      3.58959996
      0.99383333	      1.21222737	     -4.63470134	      0.88836755	     -0.26583638	      1.00592408	      0.30503213	      1.83201013	     10.85903328	      0.97105448	    -10.64507021	      5.26679936	    -15.40686356	     -1.96583598	     22.57136674	     -5.19042837	      0.62943099	    -71.75130435	     -4.68116761	    -11.13534805	      3.04681770	     -0.39154362	      7.78987817	      3.74337221
      0.99800000	      1.19585680	     -4.55164084	      0.70500963	     -0.26118047	      1.00603671	      0.30535632	      1.41383532	     10.75832139	      1.02957309	    -10.41214893	      5.37498964	    -15.05744339	     -1.93384926	     23.14181762	     -5.11653835	      0.55121444	    -71.41142834	     -4.09018103	    -11.04013897	      2.94854341	     -0.46176717	      7.69312109	      3.97215182
      1.00216667	      1.21127089	     -4.46973317	      0.52903450	     -0.25651439	      1.00618411	      0.30564231	      0.95837552	     10.65414706	      1.08392502	    -10.17147585	      5.48531707	    -14.70336901	     -1.89370235	     23.65797017	     -5.04022151	      0.47729188	    -71.01577810	     -3.52139348	    -10.93545606	      2.83853504	     -0.55330337	      7.61364193	      4.19049645
      1.00633333	      1.20557298	     -4.38799980	      0.33771930	     -0.25187414	      1.00626016	      0.30596626	      0.53741520	     10.55205462	      1.16224940	     -9.95092904	      5.58079916	    -14.38544819	     -1.85421222	     24.18732211	     -4.97594051	      0.38605353	    -70.58876241	     -2.96033796	    -10.80854779	      2.74738711	     -0.64135116	      7.50292853	      4.37116713
      1.01050000	      1.19696019	     -4.30102813	      0.13044057	     -0.24721803	      1.00632828	      0.30627467	      0.11967640	     10.43908124	      1.26250689	     -9.73181337	      5.66014606	    -14.09947504	     -1.81991549	     24.69371571	     -4.90550204	      0.28628722	    -70.10753761	     -2.40987521	    -10.67352548	      2.68135382	     -0.71348721	      7.41931477	      4.52597979
      1.01466667	      1.16517824	     -4.22677756	     -0.05897435	     -0.24256630	      1.00630686	      0.30657864	     -0.26967497	     10.34171927	      1.35663811	     -9.51510939	      5.74932330	    -13.82159153	     -1.78712176	     25.22437656	     -4.84748960	      0.20507998	    -69.60243180	     -1.88536632	    -10.50765886	      2.62679943	     -0.76375778	      7.32085285	      4.68596950
      1.01883333	      1.17010048	     -4.15899485	     -0.24334121	     -0.23792021	      1.00631673	      0.30685014	     -0.69849736	     10.24720275	      1.44400925	     -9.29482511	      5.84907623	    -13.52397782	     -1.74803699	     25.69747618	     -4.79038861	      0.13835606	    -69.05108055	     -1.38842679	    -10.28387130	      2.56376007	     -0.85580889	      7.25625873	      4.87779405
      1.02300000	      1.14045057	     -4.10094124	     -0.42795369	     -0.23327159	      1.00623283	      0.30711988	     -1.08375611	     10.16150589	      1.52926145	     -9.08340421	      5.94719085	    -13.23021962	     -1.70218377	     26.19942480	     -4.74550576	      0.07752890	    -68.47172454	     -0.91433393	    -10.04816869	      2.49104535	     -0.90822261	      7.19203372	      5.07447601
      1.02716667	      1.11094967	     -4.02779175	     -0.61565049	     -0.22861913	      1.00614145	      0.30740462	     -1.47089497	     10.06185676	      1.64868463	     -8.86928961	      6.03699586	    -12.99290115	     -1.66713361	     26.68046449	     -4.68828198	      0.00393530	    -67.84266327	     -0.48354388	     -9.86177056	      2.44130085	     -0.96569798	      7.07943079	      5.21110451
      1.03133333	      1.07862518	     -3.98124375	     -0.79965951	     -0.22397392	      1.00599571	      0.30765537	     -1.84613153	      9.98860614	      1.76882972	     -8.67144676	      6.13191559	    -12.75418725	     -1.62906104	     27.15457862	     -4.65403457	     -0.04798445	    -67.18505737	     -0.06250258	     -9.60555399	      2.38936008	     -1.00968953	      7.04259399	      5.37964223
      1.03550000	      1.06766363	     -3.93124838	     -0.95885482	     -0.21931182	      1.00585698	      0.30787566	     -2.24882633	      9.90985794	      1.85466625	     -8.46100335	      6.24400491	    -12.49107541	     -1.56126475	     27.59175629	     -4.60694619	     -0.07889096	    -66.48901681	      0.32492705	     -9.34277686	      2.28082258	     -1.08928307	      6.98077123	      5.62337408
      1.03966667	      1.02977437	     -3.85994934	     -1.15330196	     -0.21464834	      1.00567164	      0.30813701	     -2.61161975	      9.80815688	      2.00031973	     -8.27610080	      6.33428158	    -12.31654191	     -1.52701711	     28.02808813	     -4.55726930	     -0.15882917	    -65.73743758	      0.66123530	     -9.12789055	      2.23535116	     -1.12214257	      6.89726620	      5.72194929
      1.04383333	      0.99309133	     -3.81192363	     -1.32531403	     -0.20998668	      1.00543463	      0.30836923	     -2.97738108	      9.73263119	      2.13981945	     -8.08418603	      6.43589633	    -12.14456837	     -1.49279002	     28.45795483	     -4.52261540	     -0.20407841	    -64.96527406	      0.99431210	     -8.87232670	      2.19151033	     -1.16232917	      6.83990995	      5.86649877
      1.04800000	      0.94982244	     -3.77514353	     -1.48908777	     -0.20531738	      1.00514670	      0.30858287	     -3.33463293	      9.66975459	      2.28465971	     -7.89534350	      6.54281791	    -11.99511784	     -1.46112742	     28.88234842	     -4.49691840	     -0.23910953	    -64.16357350	      1.30145856	     -8.61537265	      2.15122980	     -1.19286581	      6.79334645	      6.01209952
      1.05216667	      0.90169857	     -3.72143981	     -1.65179338	     -0.20063786	      1.00484665	      0.30878517	     -3.68073737	      9.58704069	      2.42975014	     -7.71730448	      6.65543337	    -11.86884926	     -1.43288973	     29.28651422	     -4.45125329	     -0.27621731	    -63.30949127	      1.57263176	     -8.37384656	      2.11553659	     -1.21554963	      6.72933112	      6.15314253
      1.05633333	      0.85943224	     -3.68319383	     -1.80434246	     -0.19595643	      1.00450444	      0.30897146	     -4.03179680	      9.52104173	      2.57877739	     -7.54134359	      6.77640641	    -11.75887237	     -1.40673457	     29.67291083	     -4.42106477	     -0.30387353	    -62.42983355	      1.83389636	     -8.12100086	      2.08305953	     -1.24382581	      6.68251986	      6.29253436
      1.06050000	      0.82421406	     -3.65310871	     -1.94235333	     -0.19124783	      1.00415051	      0.30914182	     -4.39642149	      9.46448589	      2.72266937	     -7.35421821	      6.90845302	    -11.68331672	     -1.37356343	     30.03353880	     -4.39723575	     -0.32270504	    -61.51387234	      2.08038656	     -7.85433844	      2.03370628	     -1.27202547	      6.64799316	      6.48253657
      1.06466667	      0.77183305	     -3.60413066	     -2.08905048	     -0.18654902	      1.00376226	      0.30930140	     -4.72641281	      9.38591634	      2.88674884	     -7.19849472	      7.03085621	    -11.61767669	     -1.35460937	     30.38553100	     -4.35080365	     -0.34718344	    -60.54599812	      2.28858176	     -7.64347916	      2.00885125	     -1.28841005	      6.58816712	      6.57086339
      1.06883333	      0.72358272	     -3.57089301	     -2.21837831	     -0.18183435	      1.00332404	      0.30944443	     -5.06306280	      9.32561861	      3.04094681	     -7.03996374	      7.17661644	    -11.57678855	     -1.33690091	     30.72270396	     -4.31841064	     -0.35791711	    -59.55642618	      2.49992299	     -7.40456927	      1.98491099	     -1.30262788	      6.54307645	      6.68915703
      1.07300000	      0.67243256	     -3.53848089	     -2.34256000	     -0.17710273	      1.00286375	      0.30957201	     -5.39435444	      9.26575376	      3.20035055	     -6.88667146	      7.32403932	    -11.55418240	     -1.32298439	     31.04019319	     -4.28524533	     -0.36693525	    -58.52720826	      2.69565123	     -7.17789869	      1.96502627	     -1.31098121	      6.50196847	      6.80054404
      1.07716667	      0.62103870	     -3.50234882	     -2.45609619	     -0.17235763	      1.00238183	      0.30967627	     -5.72279955	      9.20086713	      3.35007609	     -6.73856755	      7.48225494	    -11.54921227	     -1.31320223	     31.33752478	     -4.24356721	     -0.37121665	    -57.45857523	      2.87475553	     -6.97134212	      1.94924479	     -1.32212420	      6.46130472	      6.90385170
      1.08133333	      0.58462942	     -3.46956591	     -2.56387697	     -0.16760027	      1.00189690	      0.30977018	     -6.06527125	      9.13912953	      3.50340664	     -6.59567340	      7.64588214	    -11.55839046	     -1.30632871	     31.59581364	     -4.20501019	     -0.37619666	    -56.35164611	      3.04799075	     -6.77230604	      1.93603792	     -1.34485909	      6.42133976	      7.00547689
      1.08550000	      0.50948765	     -3.45681856	     -2.62959485	     -0.16281669	      1.00129439	      0.30980607	     -6.37260913	      9.10453071	      3.62524485	     -6.43793586	      7.80818617	    -11.53425538	     -1.30202035	     31.89225667	     -4.15930735	     -0.32043450	    -55.22976560	      3.19861100	     -6.62780450	      1.93164686	     -1.30606780	      6.40540363	      7.06023734
